HIERARCHY
ROOT ui
{
	 OFFSET 0 0 0
	 CHANNELS 3 XPosition YPosition Z Position
	 EndSite
	 {
	 OFFSET 0 -1 0
	 }
}
ROOT li
{
	 OFFSET 0 0 0
	 CHANNELS 3 XPosition YPosition Z Position
	 EndSite
	 {
	 OFFSET 0 -1 0
	 }
}
ROOT ul
{
	 OFFSET 0 0 0
	 CHANNELS 3 XPosition YPosition Z Position
	 EndSite
	 {
	 OFFSET 0 -1 0
	 }
}
ROOT ll
{
	 OFFSET 0 0 0
	 CHANNELS 3 XPosition YPosition Z Position
	 EndSite
	 {
	 OFFSET 0 -1 0
	 }
}
ROOT tt
{
	 OFFSET 0 0 0
	 CHANNELS 3 XPosition YPosition Z Position
	 EndSite
	 {
	 OFFSET 0 -1 0
	 }
}
ROOT tb
{
	 OFFSET 0 0 0
	 CHANNELS 3 XPosition YPosition Z Position
	 EndSite
	 {
	 OFFSET 0 -1 0
	 }
}
ROOT td
{
	 OFFSET 0 0 0
	 CHANNELS 3 XPosition YPosition Z Position
	 EndSite
	 {
	 OFFSET 0 -1 0
	 }
}
ROOT v
{
	 OFFSET 0 0 0
	 CHANNELS 3 XPosition YPosition Z Position
	 EndSite
	 {
	 OFFSET 0 -1 0
	 }
}
ROOT bn
{
	 OFFSET 0 0 0
	 CHANNELS 3 XPosition YPosition Z Position
	 EndSite
	 {
	 OFFSET 0 -1 0
	 }
}
MOTION
Frames: 19
Frame Time: 0.002
0.0239688663482666	8.01351010799408E-4	0		0.6422459716796876	-2.57501123046875	0		-0.8479605712890625	0.3832200927734375	0		-0.13578958129882812	-3.223664306640625	0		1.4657120361328124	-0.49476467895507814	0		2.934548095703125	0.22444783020019532	0		4.42021240234375	0.55645654296875	0		5.8938740234375	0.32522537231445314	0		-0.34439105224609373	5.9081142578125	0		
0.02719881057739258	0.004421417236328125	0		0.6935283203125	-2.58086865234375	0		-0.85382763671875	0.3798856811523437	0		-0.10240366363525391	-3.223375	0		1.4678319091796874	-0.5040482788085937	0		2.935807861328125	0.23226046752929688	0		4.41937744140625	0.5573784790039062	0		5.90183349609375	0.31983184814453125	0		-0.3786032409667969	5.903109375	0		
-0.03978319931030273	-0.01019601821899414	0		0.6429331665039062	-2.571624267578125	0		-0.854661865234375	0.3805184326171875	0		-0.12995672607421874	-3.21341650390625	0		1.469946533203125	-0.5123286743164063	0		2.932906494140625	0.22610807800292967	0		4.4115986328125	0.5643543090820312	0		5.909791015625	0.31611431884765623	0		-0.3636345520019531	5.91159521484375	0		
0.0314308032989502	-0.006280316829681397	0		0.6462718505859375	-2.565956787109375	0		-0.9195101318359375	0.38084417724609376	0		-0.1545144500732422	-3.200485107421875	0		1.4342305908203126	-0.5032114868164063	0		2.9433369140625	0.251798583984375	0		4.4217490234375	0.56510986328125	0		5.91576806640625	0.3504409484863281	0		-0.36471383666992185	5.91226220703125	0		
-0.03628039932250977	0.006111184120178223	0		0.64857275390625	-2.561284423828125	0		-0.8463593139648438	0.3807098083496094	0		-0.11819310760498047	-3.196200927734375	0		1.433416748046875	-0.5024794006347656	0		2.919391845703125	0.24282792663574218	0		4.4169716796875	0.5729890747070312	0		5.8965654296875	0.3368902587890625	0		-0.33268142700195313	5.9195810546875	0		
0.034712039947509765	-0.009975089073181152	0		0.6447667236328125	-2.564560546875	0		-0.8662770385742188	0.37456182861328124	0		-0.15977890014648438	-3.180097900390625	0		1.4662034912109374	-0.539122802734375	0		2.924687744140625	0.25651834106445315	0		4.41205859375	0.567827392578125	0		5.90227783203125	0.3122259521484375	0		-0.34780459594726565	5.90839501953125	0		
0.03387850952148438	-0.009313106536865234	0		0.6340686645507813	-2.555781494140625	0		-0.8671182250976562	0.3752059631347656	0		-0.10547894287109374	-3.173019775390625	0		1.479147705078125	-0.5605787963867187	0		2.919785888671875	0.25128004455566405	0		4.4152763671875	0.5745335083007812	0		5.9039140625	0.3342775573730469	0		-0.382816650390625	5.90340771484375	0		
0.018193315505981446	0.005488367080688477	0		0.6332659301757813	-2.5551298828125	0		-0.8730086669921875	0.3708923645019531	0		-0.16413417053222656	-3.158767333984375	0		1.4813524169921874	-0.5569488525390625	0		2.932095947265625	0.2658214416503906	0		4.41443603515625	0.5752305908203125	0		5.90052001953125	0.3476975402832031	0		-0.36761688232421874	5.91387841796875	0		
-0.04477917861938477	-0.00623506498336792	0		0.5845457153320313	-2.543999267578125	0		-0.9378457641601563	0.3721854248046875	0		-0.14395033264160156	-3.15736572265625	0		1.4864521484375	-0.562382080078125	0		2.918109130859375	0.2525948638916016	0		4.41359423828125	0.575872802734375	0		5.899921875	0.3488197937011719	0		-0.367491943359375	5.9134892578125	0		
0.0264066162109375	-0.0023932850360870363	0		0.6297664794921874	-2.53588623046875	0		-0.9386968383789063	0.3727884826660156	0		-0.19147381591796875	-3.1242724609375	0		1.50239697265625	-0.5809651489257812	0		2.945403564453125	0.2668893127441406	0		4.412744140625	0.5764577026367188	0		5.8970615234375	0.32392889404296876	0		-0.3493778991699219	5.908890625	0		
-0.046503192901611326	-0.005059971809387207	0		0.6268460083007813	-2.53729736328125	0		-0.8746522827148437	0.3646887512207031	0		-0.1563606872558594	-3.1220751953125	0		1.5074554443359376	-0.5864700317382813	0		2.91847314453125	0.2617058410644531	0		4.40695263671875	0.5840361328125	0		5.9000732421875	0.3402880859375	0		-0.3842459716796875	5.90382763671875	0		
0.02958732032775879	-0.006323890209197998	0		0.6160001220703125	-2.52765576171875	0		-0.954577880859375	0.36208734130859377	0		-0.22808729553222656	-3.09977587890625	0		1.512475830078125	-0.5930127563476563	0		2.923709716796875	0.274135986328125	0		4.4109951171875	0.5774503173828125	0		5.89943408203125	0.3410464172363281	0		-0.3850313415527344	5.9043828125	0		
-0.04831668472290039	-0.003987963914871216	0		0.5890493774414063	-2.523874755859375	0		-0.8855441284179687	0.3568931884765625	0		-0.1560477600097656	-3.09602099609375	0		1.5252974853515624	-0.6156768188476562	0		2.94854248046875	0.2503085174560547	0		4.414154296875	0.583815673828125	0		5.906052734375	0.3743692321777344	0		-0.4037649841308594	5.90810498046875	0		
0.027726333618164064	-0.0053069148063659664	0		0.6030028686523438	-2.525556396484375	0		-0.94048193359375	0.3569923400878906	0		-0.21089675903320312	-3.07694677734375	0		1.5392391357421875	-0.6243885498046875	0		2.93292822265625	0.28086651611328123	0		4.417294921875	0.5901253662109375	0		5.9067607421875	0.364476318359375	0		-0.3505167236328125	5.9080419921875	0		
-0.04314632797241211	0.003911876916885376	0		0.6200269165039063	-2.517297607421875	0		-0.8765186157226562	0.34881134033203126	0		-0.1369081268310547	-3.070263671875	0		1.5382530517578126	-0.6239741821289062	0		2.932860107421875	0.270216552734375	0		4.43329150390625	0.5842467041015625	0		5.89894873046875	0.36681005859375	0		-0.3862885437011719	5.9049033203125	0		
0.010939336776733399	0.009779948234558106	0		0.6179176025390625	-2.518859375	0		-0.8815318603515625	0.3443485412597656	0		-0.20677069091796876	-3.0460654296875	0		1.5460672607421875	-0.6406831665039062	0		2.926961181640625	0.2765937805175781	0		4.4213427734375	0.5846215209960938	0		5.8982509765625	0.3671388549804688	0		-0.35294900512695315	5.91001123046875	0		
-0.05217671203613281	-0.002115438938140869	0		0.6147803344726562	-2.521430419921875	0		-0.8875379028320313	0.3408841247558594	0		-0.20181634521484376	-3.037682373046875	0		1.54505517578125	-0.6403218383789062	0		2.93781103515625	0.2597586669921875	0		4.431390625	0.5847221069335937	0		5.89754931640625	0.3673877258300781	0		-0.37159246826171877	5.91466015625	0		
0.023835920333862306	-0.0035220489501953125	0		0.5637621459960938	-2.51250146484375	0		-0.9575307006835938	0.33809991455078126	0		-0.19081187438964844	-3.02437939453125	0		1.5618424072265624	-0.6591759033203125	0		2.942112060546875	0.2839676818847656	0		4.43844970703125	0.58481982421875	0		5.90607177734375	0.35521429443359376	0		-0.35812841796875	5.92595068359375	0		
0.017943117141723634	0.0019386450052261352	0		0.58966943359375	-2.5124189453125	0		-0.95251318359375	0.3334979248046875	0		-0.18079177856445314	-3.01108056640625	0		1.5698243408203125	-0.661954833984375	0		2.950919921875	0.26010000610351564	0		4.44753515625	0.5848650512695313	0		5.917572265625	0.36712094116210936	0		-0.35873617553710935	5.92637890625	0		
